<mxfile host="Electron" modified="2024-11-02T21:44:56.662Z" agent="Mozilla/5.0 (Windows NT 10.0; Win64; x64) AppleWebKit/537.36 (KHTML, like Gecko) draw.io/24.6.4 Chrome/124.0.6367.207 Electron/30.0.6 Safari/537.36" etag="oJ9TIFW-lixYmK9uH9Xg" version="24.6.4" type="device">
  <diagram name="Page-1" id="-g0Nz42SCpgNcje58kK2">
    <mxGraphModel dx="1434" dy="844" grid="1" gridSize="10" guides="1" tooltips="1" connect="1" arrows="1" fold="1" page="1" pageScale="1" pageWidth="850" pageHeight="1100" math="0" shadow="0">
      <root>
        <mxCell id="0" />
        <mxCell id="1" parent="0" />
        <mxCell id="Q5TmCxP0SlpASygzWGgC-3" value="Use Case Modeling" style="text;html=1;align=center;verticalAlign=middle;whiteSpace=wrap;rounded=0;fontSize=24;labelBackgroundColor=none;fontStyle=4" parent="1" vertex="1">
          <mxGeometry x="10" y="10" width="230" height="70" as="geometry" />
        </mxCell>
        <mxCell id="US5DI6zU_DzSsQWjxOKa-15" style="edgeStyle=none;shape=connector;rounded=0;orthogonalLoop=1;jettySize=auto;html=1;exitX=0.5;exitY=0.5;exitDx=0;exitDy=0;exitPerimeter=0;entryX=0.5;entryY=1;entryDx=0;entryDy=0;strokeColor=default;align=center;verticalAlign=middle;fontFamily=Helvetica;fontSize=11;fontColor=default;labelBackgroundColor=default;endArrow=none;endFill=0;" parent="1" source="heY-ehneS2k7w_5LHOFB-1" target="heY-ehneS2k7w_5LHOFB-16" edge="1">
          <mxGeometry relative="1" as="geometry" />
        </mxCell>
        <mxCell id="US5DI6zU_DzSsQWjxOKa-25" style="edgeStyle=none;shape=connector;rounded=0;orthogonalLoop=1;jettySize=auto;html=1;exitX=0.5;exitY=0.5;exitDx=0;exitDy=0;exitPerimeter=0;strokeColor=default;align=center;verticalAlign=middle;fontFamily=Helvetica;fontSize=11;fontColor=default;labelBackgroundColor=none;endArrow=none;endFill=0;" parent="1" source="heY-ehneS2k7w_5LHOFB-1" target="US5DI6zU_DzSsQWjxOKa-23" edge="1">
          <mxGeometry relative="1" as="geometry" />
        </mxCell>
        <mxCell id="heY-ehneS2k7w_5LHOFB-1" value="User" style="shape=umlActor;verticalLabelPosition=bottom;verticalAlign=top;html=1;outlineConnect=0;labelBackgroundColor=none;" parent="1" vertex="1">
          <mxGeometry x="410" y="480" width="30" height="60" as="geometry" />
        </mxCell>
        <mxCell id="heY-ehneS2k7w_5LHOFB-3" value="Browse QDialog" style="shape=umlFrame;whiteSpace=wrap;html=1;pointerEvents=0;width=140;height=55;labelBackgroundColor=none;fontSize=16;" parent="1" vertex="1">
          <mxGeometry x="50" y="600" width="320" height="310" as="geometry" />
        </mxCell>
        <mxCell id="M6t2i2oo2AYov40swfke-3" style="rounded=0;orthogonalLoop=1;jettySize=auto;html=1;dashed=1;" edge="1" parent="1" source="heY-ehneS2k7w_5LHOFB-13" target="US5DI6zU_DzSsQWjxOKa-9">
          <mxGeometry relative="1" as="geometry" />
        </mxCell>
        <mxCell id="M6t2i2oo2AYov40swfke-4" value="&amp;lt; includes &amp;gt;" style="edgeLabel;html=1;align=center;verticalAlign=middle;resizable=0;points=[];labelBackgroundColor=none;" vertex="1" connectable="0" parent="M6t2i2oo2AYov40swfke-3">
          <mxGeometry x="0.3017" relative="1" as="geometry">
            <mxPoint as="offset" />
          </mxGeometry>
        </mxCell>
        <mxCell id="heY-ehneS2k7w_5LHOFB-13" value="&lt;span style=&quot;font-size: 12px;&quot;&gt;Target&lt;/span&gt;&lt;br&gt;&lt;div style=&quot;font-size: 12px;&quot;&gt;&lt;span style=&quot;&quot;&gt;.csv file&lt;/span&gt;&lt;/div&gt;" style="ellipse;whiteSpace=wrap;html=1;fontFamily=Helvetica;fontSize=11;fontColor=default;labelBackgroundColor=none;" parent="1" vertex="1">
          <mxGeometry x="150" y="715" width="120" height="80" as="geometry" />
        </mxCell>
        <mxCell id="US5DI6zU_DzSsQWjxOKa-1" value="&amp;lt; extends &amp;gt;" style="rounded=0;orthogonalLoop=1;jettySize=auto;html=1;dashed=1;labelBackgroundColor=none;" parent="1" source="heY-ehneS2k7w_5LHOFB-14" target="heY-ehneS2k7w_5LHOFB-16" edge="1">
          <mxGeometry relative="1" as="geometry" />
        </mxCell>
        <mxCell id="heY-ehneS2k7w_5LHOFB-14" value="&lt;span style=&quot;font-size: 12px;&quot;&gt;Filter&amp;nbsp;&lt;/span&gt;&lt;span style=&quot;font-size: 12px; background-color: initial;&quot;&gt;by range of values&lt;/span&gt;" style="ellipse;whiteSpace=wrap;html=1;fontFamily=Helvetica;fontSize=11;fontColor=default;labelBackgroundColor=none;" parent="1" vertex="1">
          <mxGeometry x="670" y="225" width="120" height="80" as="geometry" />
        </mxCell>
        <mxCell id="heY-ehneS2k7w_5LHOFB-16" value="Preview .csv search selection" style="ellipse;whiteSpace=wrap;html=1;fontFamily=Helvetica;fontSize=11;fontColor=default;labelBackgroundColor=none;" parent="1" vertex="1">
          <mxGeometry x="365" y="340" width="120" height="80" as="geometry" />
        </mxCell>
        <mxCell id="US5DI6zU_DzSsQWjxOKa-2" value="&#xa;&lt;span style=&quot;color: rgb(240, 240, 240); font-family: Helvetica; font-size: 11px; font-style: normal; font-variant-ligatures: normal; font-variant-caps: normal; font-weight: 400; letter-spacing: normal; orphans: 2; text-align: center; text-indent: 0px; text-transform: none; widows: 2; word-spacing: 0px; -webkit-text-stroke-width: 0px; white-space: nowrap; text-decoration-thickness: initial; text-decoration-style: initial; text-decoration-color: initial; float: none; display: inline !important;&quot;&gt;&amp;lt; extends &amp;gt;&lt;/span&gt;&#xa;&#xa;" style="rounded=0;orthogonalLoop=1;jettySize=auto;html=1;dashed=1;labelBackgroundColor=none;" parent="1" source="heY-ehneS2k7w_5LHOFB-17" target="heY-ehneS2k7w_5LHOFB-16" edge="1">
          <mxGeometry relative="1" as="geometry" />
        </mxCell>
        <mxCell id="heY-ehneS2k7w_5LHOFB-17" value="&lt;span style=&quot;font-size: 12px;&quot;&gt;Filter&amp;nbsp;&lt;/span&gt;&lt;div style=&quot;font-size: 12px;&quot;&gt;by keyword&lt;/div&gt;" style="ellipse;whiteSpace=wrap;html=1;fontFamily=Helvetica;fontSize=11;fontColor=default;labelBackgroundColor=none;" parent="1" vertex="1">
          <mxGeometry x="610" y="130" width="120" height="80" as="geometry" />
        </mxCell>
        <mxCell id="US5DI6zU_DzSsQWjxOKa-3" value="&#xa;&lt;span style=&quot;color: rgb(240, 240, 240); font-family: Helvetica; font-size: 11px; font-style: normal; font-variant-ligatures: normal; font-variant-caps: normal; font-weight: 400; letter-spacing: normal; orphans: 2; text-align: center; text-indent: 0px; text-transform: none; widows: 2; word-spacing: 0px; -webkit-text-stroke-width: 0px; white-space: nowrap; text-decoration-thickness: initial; text-decoration-style: initial; text-decoration-color: initial; float: none; display: inline !important;&quot;&gt;&amp;lt; extends &amp;gt;&lt;/span&gt;&#xa;&#xa;" style="rounded=0;orthogonalLoop=1;jettySize=auto;html=1;dashed=1;labelBackgroundColor=none;" parent="1" source="heY-ehneS2k7w_5LHOFB-19" target="heY-ehneS2k7w_5LHOFB-16" edge="1">
          <mxGeometry relative="1" as="geometry" />
        </mxCell>
        <mxCell id="heY-ehneS2k7w_5LHOFB-19" value="&lt;span style=&quot;font-size: 12px;&quot;&gt;Filter&amp;nbsp;&lt;/span&gt;&lt;div style=&quot;font-size: 12px;&quot;&gt;by column&lt;/div&gt;" style="ellipse;whiteSpace=wrap;html=1;fontFamily=Helvetica;fontSize=11;fontColor=default;labelBackgroundColor=none;" parent="1" vertex="1">
          <mxGeometry x="470" y="120" width="120" height="80" as="geometry" />
        </mxCell>
        <mxCell id="US5DI6zU_DzSsQWjxOKa-6" value="Search QMainWindow" style="shape=umlFrame;whiteSpace=wrap;html=1;pointerEvents=0;width=140;height=55;labelBackgroundColor=none;fontSize=16;" parent="1" vertex="1">
          <mxGeometry x="40" y="90" width="770" height="350" as="geometry" />
        </mxCell>
        <mxCell id="US5DI6zU_DzSsQWjxOKa-9" value="Search .csv data" style="ellipse;whiteSpace=wrap;html=1;fontFamily=Helvetica;fontSize=11;fontColor=default;labelBackgroundColor=none;fontStyle=1" parent="1" vertex="1">
          <mxGeometry x="150" y="340" width="120" height="80" as="geometry" />
        </mxCell>
        <mxCell id="US5DI6zU_DzSsQWjxOKa-10" value="&lt;span style=&quot;font-weight: 400;&quot;&gt;&amp;lt; includes&amp;nbsp;&amp;gt;&lt;/span&gt;" style="rounded=0;orthogonalLoop=1;jettySize=auto;html=1;dashed=1;labelBackgroundColor=none;fontStyle=1" parent="1" source="US5DI6zU_DzSsQWjxOKa-11" target="US5DI6zU_DzSsQWjxOKa-9" edge="1">
          <mxGeometry x="-0.0008" relative="1" as="geometry">
            <mxPoint as="offset" />
          </mxGeometry>
        </mxCell>
        <mxCell id="US5DI6zU_DzSsQWjxOKa-11" value="&lt;span style=&quot;font-size: 12px;&quot;&gt;Via&amp;nbsp;&lt;/span&gt;&lt;div&gt;&lt;span style=&quot;font-size: 12px;&quot;&gt;keyword&lt;/span&gt;&lt;/div&gt;" style="ellipse;whiteSpace=wrap;html=1;fontFamily=Helvetica;fontSize=11;fontColor=default;labelBackgroundColor=none;fontStyle=1" parent="1" vertex="1">
          <mxGeometry x="50" y="250" width="120" height="80" as="geometry" />
        </mxCell>
        <mxCell id="US5DI6zU_DzSsQWjxOKa-12" value="&lt;div&gt;&lt;br&gt;&lt;/div&gt;&lt;div&gt;&amp;lt; includes &amp;gt;&lt;/div&gt;&lt;div&gt;&lt;br&gt;&lt;/div&gt;" style="rounded=0;orthogonalLoop=1;jettySize=auto;html=1;dashed=1;labelBackgroundColor=none;fontStyle=0" parent="1" source="US5DI6zU_DzSsQWjxOKa-13" target="US5DI6zU_DzSsQWjxOKa-9" edge="1">
          <mxGeometry relative="1" as="geometry" />
        </mxCell>
        <mxCell id="US5DI6zU_DzSsQWjxOKa-13" value="&lt;span style=&quot;font-size: 12px;&quot;&gt;Via&amp;nbsp;&lt;/span&gt;&lt;div&gt;&lt;span style=&quot;font-size: 12px;&quot;&gt;[&lt;/span&gt;&lt;span style=&quot;font-size: 12px;&quot;&gt;column|row] : keyword&lt;/span&gt;&lt;/div&gt;&lt;div&gt;&lt;span style=&quot;font-size: 12px;&quot;&gt;&lt;br&gt;&lt;/span&gt;&lt;/div&gt;" style="ellipse;whiteSpace=wrap;html=1;fontFamily=Helvetica;fontSize=11;fontColor=default;labelBackgroundColor=none;fontStyle=1" parent="1" vertex="1">
          <mxGeometry x="125" y="160" width="170" height="80" as="geometry" />
        </mxCell>
        <mxCell id="US5DI6zU_DzSsQWjxOKa-29" style="edgeStyle=none;shape=connector;rounded=0;orthogonalLoop=1;jettySize=auto;html=1;strokeColor=default;align=center;verticalAlign=middle;fontFamily=Helvetica;fontSize=11;fontColor=default;labelBackgroundColor=none;endArrow=none;endFill=0;exitX=0.5;exitY=0.5;exitDx=0;exitDy=0;exitPerimeter=0;" parent="1" source="heY-ehneS2k7w_5LHOFB-1" target="US5DI6zU_DzSsQWjxOKa-9" edge="1">
          <mxGeometry relative="1" as="geometry" />
        </mxCell>
        <mxCell id="M6t2i2oo2AYov40swfke-6" value="&amp;lt; includes &amp;gt;" style="edgeStyle=orthogonalEdgeStyle;rounded=0;orthogonalLoop=1;jettySize=auto;html=1;dashed=1;labelBackgroundColor=none;" edge="1" parent="1" source="US5DI6zU_DzSsQWjxOKa-22" target="US5DI6zU_DzSsQWjxOKa-23">
          <mxGeometry relative="1" as="geometry" />
        </mxCell>
        <mxCell id="US5DI6zU_DzSsQWjxOKa-22" value="Display current installation details" style="ellipse;whiteSpace=wrap;html=1;strokeColor=default;align=center;verticalAlign=middle;fontFamily=Helvetica;fontSize=11;fontColor=default;labelBackgroundColor=none;fillColor=default;" parent="1" vertex="1">
          <mxGeometry x="600" y="715" width="120" height="80" as="geometry" />
        </mxCell>
        <mxCell id="US5DI6zU_DzSsQWjxOKa-23" value="Instanciate&amp;nbsp;&lt;div&gt;documentation dialog&lt;/div&gt;" style="ellipse;whiteSpace=wrap;html=1;strokeColor=default;align=center;verticalAlign=middle;fontFamily=Helvetica;fontSize=11;fontColor=default;labelBackgroundColor=none;fillColor=default;" parent="1" vertex="1">
          <mxGeometry x="600" y="340" width="120" height="80" as="geometry" />
        </mxCell>
        <mxCell id="US5DI6zU_DzSsQWjxOKa-27" value="&amp;lt; extends &amp;gt;" style="edgeStyle=none;shape=connector;rounded=0;orthogonalLoop=1;jettySize=auto;html=1;strokeColor=default;align=center;verticalAlign=middle;fontFamily=Helvetica;fontSize=11;fontColor=default;labelBackgroundColor=none;endArrow=classic;dashed=1;" parent="1" source="US5DI6zU_DzSsQWjxOKa-26" target="heY-ehneS2k7w_5LHOFB-16" edge="1">
          <mxGeometry relative="1" as="geometry" />
        </mxCell>
        <mxCell id="US5DI6zU_DzSsQWjxOKa-26" value="Sort columns" style="ellipse;whiteSpace=wrap;html=1;strokeColor=default;align=center;verticalAlign=middle;fontFamily=Helvetica;fontSize=11;fontColor=default;labelBackgroundColor=none;fillColor=default;" parent="1" vertex="1">
          <mxGeometry x="320" y="145" width="120" height="80" as="geometry" />
        </mxCell>
        <mxCell id="M6t2i2oo2AYov40swfke-1" value="About QDialog" style="shape=umlFrame;whiteSpace=wrap;html=1;pointerEvents=0;width=140;height=55;labelBackgroundColor=none;fontSize=16;" vertex="1" parent="1">
          <mxGeometry x="490" y="600" width="320" height="310" as="geometry" />
        </mxCell>
      </root>
    </mxGraphModel>
  </diagram>
</mxfile>
